<svg xmlns="http://www.w3.org/2000/svg" width="512" height="512" viewBox="0 0 512 512">
  <defs>
    <radialGradient id="bg" cx="50%" cy="42%" r="72%">
      <stop offset="0%" stop-color="#1c1c48"/>
      <stop offset="62%" stop-color="#0f0f28"/>
      <stop offset="100%" stop-color="#07071a"/>
    </radialGradient>
    <linearGradient id="gold" x1="0" y1="0" x2="0" y2="1">
      <stop offset="0%" stop-color="#f0d060"/>
      <stop offset="55%" stop-color="#c9a227"/>
      <stop offset="100%" stop-color="#9a7010"/>
    </linearGradient>
  </defs>
  <rect width="512" height="512" fill="url(#bg)"/>
  <circle cx="256" cy="256" r="196" fill="none" stroke="url(#gold)" stroke-width="5" opacity="0.45"/>
  <circle cx="256" cy="256" r="150" fill="none" stroke="url(#gold)" stroke-width="2" opacity="0.28"/>
  <path d="M256 74 L288 224 L438 256 L288 288 L256 438 L224 288 L74 256 L224 224 Z" fill="url(#gold)"/>
  <path d="M150 148 l9 32 32 9 -32 9 -9 32 -9 -32 -32 -9 32 -9 Z" fill="#f0d060" opacity="0.7"/>
  <path d="M372 366 l7 26 26 7 -26 7 -7 26 -7 -26 -26 -7 26 -7 Z" fill="#f0d060" opacity="0.55"/>
  <circle cx="256" cy="256" r="17" fill="#07071a"/>
  <circle cx="256" cy="256" r="7.5" fill="url(#gold)"/>
</svg>
